<svg xmlns="http://www.w3.org/2000/svg" xmlns:xlink="http://www.w3.org/1999/xlink" width="683.092" height="614.169" viewBox="0 0 683.092 614.169"><defs><style>.a,.c,.d{fill:#91cc42;}.b{clip-path:url(#a);}.c{opacity:0.28;}.d{opacity:0.647;}</style><clipPath id="a"><path class="a" d="M969.586-436.814a3.494,3.494,0,0,1-3.506-3.485,3.494,3.494,0,0,1,3.506-3.485,3.494,3.494,0,0,1,3.506,3.485,3.494,3.494,0,0,1-3.506,3.485Zm0-24.394a3.494,3.494,0,0,1-3.506-3.485,3.494,3.494,0,0,1,3.506-3.485,3.494,3.494,0,0,1,3.506,3.485,3.494,3.494,0,0,1-3.506,3.486Zm0-24.394a3.494,3.494,0,0,1-3.506-3.485,3.494,3.494,0,0,1,3.506-3.485,3.494,3.494,0,0,1,3.506,3.485,3.494,3.494,0,0,1-3.506,3.485Zm0-24.394a3.494,3.494,0,0,1-3.506-3.485,3.494,3.494,0,0,1,3.506-3.485,3.494,3.494,0,0,1,3.506,3.485A3.494,3.494,0,0,1,969.586-510Zm0-24.394a3.494,3.494,0,0,1-3.506-3.485,3.494,3.494,0,0,1,3.506-3.485,3.494,3.494,0,0,1,3.506,3.485A3.494,3.494,0,0,1,969.586-534.39Zm0-24.394a3.494,3.494,0,0,1-3.506-3.485,3.494,3.494,0,0,1,3.506-3.485,3.494,3.494,0,0,1,3.506,3.485A3.494,3.494,0,0,1,969.586-558.784Zm-23.017,121.97a3.494,3.494,0,0,1-3.506-3.485,3.494,3.494,0,0,1,3.506-3.485,3.494,3.494,0,0,1,3.506,3.485,3.494,3.494,0,0,1-3.5,3.485Zm0-24.394a3.494,3.494,0,0,1-3.506-3.485,3.494,3.494,0,0,1,3.506-3.485,3.494,3.494,0,0,1,3.506,3.485,3.494,3.494,0,0,1-3.5,3.486Zm0-24.394a3.494,3.494,0,0,1-3.506-3.485,3.494,3.494,0,0,1,3.506-3.485,3.494,3.494,0,0,1,3.506,3.485,3.494,3.494,0,0,1-3.5,3.485Zm0-24.394a3.494,3.494,0,0,1-3.506-3.485,3.494,3.494,0,0,1,3.506-3.485,3.494,3.494,0,0,1,3.506,3.485,3.494,3.494,0,0,1-3.5,3.485Zm0-24.394a3.494,3.494,0,0,1-3.506-3.485,3.494,3.494,0,0,1,3.506-3.485,3.494,3.494,0,0,1,3.506,3.485,3.494,3.494,0,0,1-3.5,3.485Zm0-24.394a3.494,3.494,0,0,1-3.506-3.485,3.494,3.494,0,0,1,3.506-3.485,3.494,3.494,0,0,1,3.506,3.485,3.494,3.494,0,0,1-3.5,3.485Zm-23.017,121.97a3.494,3.494,0,0,1-3.506-3.485,3.494,3.494,0,0,1,3.506-3.485,3.494,3.494,0,0,1,3.506,3.485,3.494,3.494,0,0,1-3.5,3.485Zm0-24.394a3.494,3.494,0,0,1-3.506-3.485,3.494,3.494,0,0,1,3.506-3.485,3.494,3.494,0,0,1,3.506,3.485,3.494,3.494,0,0,1-3.5,3.486Zm0-24.394a3.494,3.494,0,0,1-3.506-3.485,3.494,3.494,0,0,1,3.506-3.485,3.494,3.494,0,0,1,3.506,3.485,3.494,3.494,0,0,1-3.5,3.485Zm0-24.394a3.494,3.494,0,0,1-3.506-3.485,3.494,3.494,0,0,1,3.506-3.485,3.494,3.494,0,0,1,3.506,3.485,3.494,3.494,0,0,1-3.5,3.485Zm0-24.394a3.494,3.494,0,0,1-3.506-3.485,3.494,3.494,0,0,1,3.506-3.485,3.494,3.494,0,0,1,3.506,3.485,3.494,3.494,0,0,1-3.5,3.485Zm0-24.394a3.494,3.494,0,0,1-3.506-3.485,3.494,3.494,0,0,1,3.506-3.485,3.494,3.494,0,0,1,3.506,3.485,3.494,3.494,0,0,1-3.5,3.485Zm-24.018,121.97a3.494,3.494,0,0,1-3.506-3.485,3.494,3.494,0,0,1,3.506-3.485,3.494,3.494,0,0,1,3.506,3.485,3.494,3.494,0,0,1-3.5,3.485Zm0-24.394a3.494,3.494,0,0,1-3.506-3.485,3.494,3.494,0,0,1,3.506-3.485,3.494,3.494,0,0,1,3.506,3.485,3.494,3.494,0,0,1-3.5,3.486Zm0-24.394a3.494,3.494,0,0,1-3.506-3.485,3.494,3.494,0,0,1,3.506-3.485,3.494,3.494,0,0,1,3.506,3.485,3.494,3.494,0,0,1-3.5,3.485Zm0-24.394a3.494,3.494,0,0,1-3.506-3.485,3.494,3.494,0,0,1,3.506-3.485,3.494,3.494,0,0,1,3.506,3.485,3.494,3.494,0,0,1-3.5,3.485Zm0-24.394a3.494,3.494,0,0,1-3.506-3.485,3.494,3.494,0,0,1,3.506-3.485,3.494,3.494,0,0,1,3.506,3.485,3.494,3.494,0,0,1-3.5,3.485Zm0-24.394a3.494,3.494,0,0,1-3.506-3.485,3.494,3.494,0,0,1,3.506-3.485,3.494,3.494,0,0,1,3.506,3.485,3.494,3.494,0,0,1-3.5,3.485Zm-23.017,121.97a3.494,3.494,0,0,1-3.506-3.485,3.494,3.494,0,0,1,3.506-3.485,3.494,3.494,0,0,1,3.506,3.485,3.494,3.494,0,0,1-3.5,3.485Zm0-24.394a3.494,3.494,0,0,1-3.506-3.485,3.494,3.494,0,0,1,3.506-3.485,3.494,3.494,0,0,1,3.506,3.485,3.494,3.494,0,0,1-3.5,3.486Zm0-24.394a3.494,3.494,0,0,1-3.506-3.485,3.494,3.494,0,0,1,3.506-3.485,3.494,3.494,0,0,1,3.506,3.485,3.494,3.494,0,0,1-3.5,3.485Zm0-24.394a3.494,3.494,0,0,1-3.506-3.485,3.494,3.494,0,0,1,3.506-3.485,3.494,3.494,0,0,1,3.506,3.485,3.494,3.494,0,0,1-3.5,3.485Zm0-24.394a3.494,3.494,0,0,1-3.506-3.485,3.494,3.494,0,0,1,3.506-3.485,3.494,3.494,0,0,1,3.506,3.485,3.494,3.494,0,0,1-3.5,3.485Zm0-24.394a3.494,3.494,0,0,1-3.506-3.485,3.494,3.494,0,0,1,3.506-3.485,3.494,3.494,0,0,1,3.506,3.485,3.494,3.494,0,0,1-3.5,3.485Zm-23.011,121.97A3.494,3.494,0,0,1,850-440.3a3.494,3.494,0,0,1,3.506-3.485,3.494,3.494,0,0,1,3.506,3.485,3.494,3.494,0,0,1-3.506,3.485Zm0-24.394A3.494,3.494,0,0,1,850-464.693a3.494,3.494,0,0,1,3.506-3.485,3.494,3.494,0,0,1,3.506,3.485,3.494,3.494,0,0,1-3.506,3.486Zm0-24.394A3.494,3.494,0,0,1,850-489.087a3.494,3.494,0,0,1,3.506-3.485,3.494,3.494,0,0,1,3.506,3.485,3.494,3.494,0,0,1-3.506,3.485Zm0-24.394A3.494,3.494,0,0,1,850-513.481a3.494,3.494,0,0,1,3.506-3.485,3.494,3.494,0,0,1,3.506,3.485A3.494,3.494,0,0,1,853.506-510Zm0-24.394A3.494,3.494,0,0,1,850-537.875a3.494,3.494,0,0,1,3.506-3.485,3.494,3.494,0,0,1,3.506,3.485,3.494,3.494,0,0,1-3.506,3.485Zm0-24.394A3.494,3.494,0,0,1,850-562.269a3.494,3.494,0,0,1,3.506-3.485,3.494,3.494,0,0,1,3.506,3.485,3.494,3.494,0,0,1-3.506,3.485Zm116.08,268.819a3.494,3.494,0,0,1-3.506-3.485,3.494,3.494,0,0,1,3.506-3.485,3.494,3.494,0,0,1,3.506,3.485,3.494,3.494,0,0,1-3.506,3.485Zm0-24.394a3.494,3.494,0,0,1-3.506-3.485,3.494,3.494,0,0,1,3.506-3.485,3.494,3.494,0,0,1,3.506,3.485A3.494,3.494,0,0,1,969.586-314.359Zm0-24.394a3.494,3.494,0,0,1-3.506-3.485,3.494,3.494,0,0,1,3.506-3.485,3.494,3.494,0,0,1,3.506,3.485A3.494,3.494,0,0,1,969.586-338.753Zm0-24.394a3.494,3.494,0,0,1-3.506-3.485,3.494,3.494,0,0,1,3.506-3.485,3.494,3.494,0,0,1,3.506,3.485,3.494,3.494,0,0,1-3.506,3.485Zm0-24.394a3.494,3.494,0,0,1-3.506-3.485,3.494,3.494,0,0,1,3.506-3.485,3.494,3.494,0,0,1,3.506,3.485,3.494,3.494,0,0,1-3.506,3.485Zm0-24.394a3.494,3.494,0,0,1-3.506-3.485,3.494,3.494,0,0,1,3.506-3.485,3.494,3.494,0,0,1,3.506,3.485A3.494,3.494,0,0,1,969.586-411.935Zm-23.014,121.97a3.494,3.494,0,0,1-3.506-3.485,3.494,3.494,0,0,1,3.506-3.485,3.494,3.494,0,0,1,3.506,3.485,3.494,3.494,0,0,1-3.506,3.485Zm0-24.394a3.494,3.494,0,0,1-3.506-3.485,3.494,3.494,0,0,1,3.506-3.485,3.494,3.494,0,0,1,3.506,3.485,3.494,3.494,0,0,1-3.506,3.485Zm0-24.394a3.494,3.494,0,0,1-3.506-3.485,3.494,3.494,0,0,1,3.506-3.485,3.494,3.494,0,0,1,3.506,3.485,3.494,3.494,0,0,1-3.506,3.485Zm0-24.394a3.494,3.494,0,0,1-3.506-3.485,3.494,3.494,0,0,1,3.506-3.485,3.494,3.494,0,0,1,3.506,3.485,3.494,3.494,0,0,1-3.506,3.485Zm0-24.394a3.494,3.494,0,0,1-3.506-3.485,3.494,3.494,0,0,1,3.506-3.485,3.494,3.494,0,0,1,3.506,3.485,3.494,3.494,0,0,1-3.506,3.485Zm0-24.394a3.494,3.494,0,0,1-3.506-3.485,3.494,3.494,0,0,1,3.506-3.485,3.494,3.494,0,0,1,3.506,3.485,3.494,3.494,0,0,1-3.506,3.485Zm-23.017,121.97a3.494,3.494,0,0,1-3.506-3.485,3.494,3.494,0,0,1,3.506-3.485,3.494,3.494,0,0,1,3.506,3.485,3.494,3.494,0,0,1-3.506,3.485Zm0-24.394a3.494,3.494,0,0,1-3.506-3.485,3.494,3.494,0,0,1,3.506-3.485,3.494,3.494,0,0,1,3.506,3.485,3.494,3.494,0,0,1-3.506,3.485Zm0-24.394a3.494,3.494,0,0,1-3.506-3.485,3.494,3.494,0,0,1,3.506-3.485,3.494,3.494,0,0,1,3.506,3.485,3.494,3.494,0,0,1-3.506,3.485Zm0-24.394a3.494,3.494,0,0,1-3.506-3.485,3.494,3.494,0,0,1,3.506-3.485,3.494,3.494,0,0,1,3.506,3.485,3.494,3.494,0,0,1-3.506,3.485Zm0-24.394a3.494,3.494,0,0,1-3.506-3.485,3.494,3.494,0,0,1,3.506-3.485,3.494,3.494,0,0,1,3.506,3.485,3.494,3.494,0,0,1-3.506,3.485Zm0-24.394a3.494,3.494,0,0,1-3.506-3.485,3.494,3.494,0,0,1,3.506-3.485,3.494,3.494,0,0,1,3.506,3.485,3.494,3.494,0,0,1-3.506,3.485Zm-24.018,121.97a3.494,3.494,0,0,1-3.506-3.485,3.494,3.494,0,0,1,3.506-3.485,3.494,3.494,0,0,1,3.506,3.485,3.494,3.494,0,0,1-3.506,3.485Zm0-24.394a3.494,3.494,0,0,1-3.506-3.485,3.494,3.494,0,0,1,3.506-3.485,3.494,3.494,0,0,1,3.506,3.485A3.494,3.494,0,0,1,899.537-314.359Zm0-24.394a3.494,3.494,0,0,1-3.506-3.485,3.494,3.494,0,0,1,3.506-3.485,3.494,3.494,0,0,1,3.506,3.485A3.494,3.494,0,0,1,899.537-338.753Zm0-24.394a3.494,3.494,0,0,1-3.506-3.485,3.494,3.494,0,0,1,3.506-3.485,3.494,3.494,0,0,1,3.506,3.485,3.494,3.494,0,0,1-3.506,3.485Zm0-24.394a3.494,3.494,0,0,1-3.506-3.485,3.494,3.494,0,0,1,3.506-3.485,3.494,3.494,0,0,1,3.506,3.485,3.494,3.494,0,0,1-3.506,3.485Zm0-24.394a3.494,3.494,0,0,1-3.506-3.485,3.494,3.494,0,0,1,3.506-3.485,3.494,3.494,0,0,1,3.506,3.485A3.494,3.494,0,0,1,899.537-411.935ZM876.52-289.965a3.494,3.494,0,0,1-3.506-3.485,3.494,3.494,0,0,1,3.506-3.485,3.494,3.494,0,0,1,3.506,3.485,3.494,3.494,0,0,1-3.506,3.485Zm0-24.394a3.494,3.494,0,0,1-3.506-3.485,3.494,3.494,0,0,1,3.506-3.485,3.494,3.494,0,0,1,3.506,3.485A3.494,3.494,0,0,1,876.52-314.359Zm0-24.394a3.494,3.494,0,0,1-3.506-3.485,3.494,3.494,0,0,1,3.506-3.485,3.494,3.494,0,0,1,3.506,3.485A3.494,3.494,0,0,1,876.52-338.753Zm0-24.394a3.494,3.494,0,0,1-3.506-3.485,3.494,3.494,0,0,1,3.506-3.485,3.494,3.494,0,0,1,3.506,3.485,3.494,3.494,0,0,1-3.506,3.485Zm0-24.394a3.494,3.494,0,0,1-3.506-3.485,3.494,3.494,0,0,1,3.506-3.485,3.494,3.494,0,0,1,3.506,3.485,3.494,3.494,0,0,1-3.506,3.485Zm0-24.394a3.494,3.494,0,0,1-3.506-3.485,3.494,3.494,0,0,1,3.506-3.485,3.494,3.494,0,0,1,3.506,3.485A3.494,3.494,0,0,1,876.52-411.935Zm-23.014,121.97A3.494,3.494,0,0,1,850-293.45a3.494,3.494,0,0,1,3.506-3.485,3.494,3.494,0,0,1,3.506,3.485,3.494,3.494,0,0,1-3.506,3.485Zm0-24.394A3.494,3.494,0,0,1,850-317.844a3.494,3.494,0,0,1,3.506-3.485,3.494,3.494,0,0,1,3.506,3.485,3.494,3.494,0,0,1-3.506,3.485Zm0-24.394A3.494,3.494,0,0,1,850-342.238a3.494,3.494,0,0,1,3.506-3.485,3.494,3.494,0,0,1,3.506,3.485,3.494,3.494,0,0,1-3.506,3.485Zm0-24.394A3.494,3.494,0,0,1,850-366.632a3.494,3.494,0,0,1,3.506-3.485,3.494,3.494,0,0,1,3.506,3.485,3.494,3.494,0,0,1-3.506,3.485Zm0-24.394A3.494,3.494,0,0,1,850-391.026a3.494,3.494,0,0,1,3.506-3.485,3.494,3.494,0,0,1,3.506,3.485,3.494,3.494,0,0,1-3.506,3.485Zm0-24.394A3.494,3.494,0,0,1,850-415.42a3.494,3.494,0,0,1,3.506-3.485,3.494,3.494,0,0,1,3.506,3.485,3.494,3.494,0,0,1-3.506,3.485Z" transform="translate(-850 565.754)"/></clipPath></defs><g transform="translate(-327 -146.831)"><g class="b" transform="translate(887 146.831)"><path class="a" d="M846.575-569.178H977.458V-285.6H846.575Z" transform="translate(-850.471 565.283)"/></g><path class="c" d="M200,100A100,100,0,0,1,100,200h0A100,100,0,0,1,0,100H0A100,100,0,0,1,100,0H200Z" transform="translate(797 561)"/><path class="d" d="M0,37A37,37,0,0,0,37,74h0A37,37,0,0,0,74,37h0A37,37,0,0,0,37,0H0Z" transform="translate(327 183)"/></g></svg>