<svg xmlns="http://www.w3.org/2000/svg" xmlns:xlink="http://www.w3.org/1999/xlink" width="247.354" height="110.401" viewBox="0 0 247.354 110.401"><defs><style>.a{fill:#91cc42;}.b{clip-path:url(#a);}</style><clipPath id="a"><path class="a" d="M957.256-450.108a3.134,3.134,0,0,1-3.144-3.125,3.134,3.134,0,0,1,3.144-3.126,3.134,3.134,0,0,1,3.144,3.126,3.134,3.134,0,0,1-3.144,3.126Zm0-21.879a3.134,3.134,0,0,1-3.144-3.125,3.134,3.134,0,0,1,3.144-3.125,3.134,3.134,0,0,1,3.144,3.125,3.134,3.134,0,0,1-3.144,3.126Zm0-21.879a3.134,3.134,0,0,1-3.144-3.125,3.134,3.134,0,0,1,3.144-3.125,3.134,3.134,0,0,1,3.144,3.125,3.134,3.134,0,0,1-3.144,3.126Zm0-21.879a3.134,3.134,0,0,1-3.144-3.125A3.134,3.134,0,0,1,957.256-522a3.134,3.134,0,0,1,3.144,3.125,3.134,3.134,0,0,1-3.144,3.126Zm0-21.879a3.134,3.134,0,0,1-3.144-3.125,3.134,3.134,0,0,1,3.144-3.125,3.134,3.134,0,0,1,3.144,3.125A3.134,3.134,0,0,1,957.256-537.624Zm0-21.879a3.134,3.134,0,0,1-3.144-3.125,3.134,3.134,0,0,1,3.144-3.125,3.134,3.134,0,0,1,3.144,3.125A3.134,3.134,0,0,1,957.256-559.5ZM936.612-450.108a3.134,3.134,0,0,1-3.144-3.126,3.134,3.134,0,0,1,3.144-3.126,3.134,3.134,0,0,1,3.144,3.126,3.134,3.134,0,0,1-3.142,3.126Zm0-21.879a3.134,3.134,0,0,1-3.144-3.125,3.134,3.134,0,0,1,3.144-3.126,3.134,3.134,0,0,1,3.144,3.126,3.134,3.134,0,0,1-3.142,3.126Zm0-21.879a3.134,3.134,0,0,1-3.144-3.126,3.134,3.134,0,0,1,3.144-3.125,3.134,3.134,0,0,1,3.144,3.126,3.134,3.134,0,0,1-3.142,3.126Zm0-21.879a3.134,3.134,0,0,1-3.144-3.125A3.134,3.134,0,0,1,936.612-522a3.134,3.134,0,0,1,3.144,3.125,3.134,3.134,0,0,1-3.142,3.126Zm0-21.879a3.134,3.134,0,0,1-3.144-3.125,3.134,3.134,0,0,1,3.144-3.125,3.134,3.134,0,0,1,3.144,3.125,3.134,3.134,0,0,1-3.142,3.126Zm0-21.879a3.134,3.134,0,0,1-3.144-3.125,3.134,3.134,0,0,1,3.144-3.126,3.134,3.134,0,0,1,3.144,3.126,3.134,3.134,0,0,1-3.142,3.125ZM915.968-450.108a3.134,3.134,0,0,1-3.144-3.125,3.134,3.134,0,0,1,3.144-3.126,3.134,3.134,0,0,1,3.144,3.126,3.134,3.134,0,0,1-3.142,3.126Zm0-21.879a3.134,3.134,0,0,1-3.144-3.126,3.134,3.134,0,0,1,3.144-3.125,3.134,3.134,0,0,1,3.144,3.125,3.134,3.134,0,0,1-3.142,3.126Zm0-21.879a3.134,3.134,0,0,1-3.144-3.126,3.134,3.134,0,0,1,3.144-3.125,3.134,3.134,0,0,1,3.144,3.125,3.134,3.134,0,0,1-3.142,3.126Zm0-21.879a3.134,3.134,0,0,1-3.144-3.125A3.134,3.134,0,0,1,915.968-522a3.134,3.134,0,0,1,3.144,3.125,3.134,3.134,0,0,1-3.142,3.126Zm0-21.879a3.134,3.134,0,0,1-3.144-3.125,3.134,3.134,0,0,1,3.144-3.125,3.134,3.134,0,0,1,3.144,3.125,3.134,3.134,0,0,1-3.142,3.126Zm0-21.879a3.134,3.134,0,0,1-3.144-3.125,3.134,3.134,0,0,1,3.144-3.125,3.134,3.134,0,0,1,3.144,3.126,3.134,3.134,0,0,1-3.142,3.125ZM894.426-450.108a3.134,3.134,0,0,1-3.144-3.126,3.134,3.134,0,0,1,3.144-3.125,3.134,3.134,0,0,1,3.144,3.125,3.134,3.134,0,0,1-3.142,3.126Zm0-21.879a3.134,3.134,0,0,1-3.144-3.125,3.134,3.134,0,0,1,3.144-3.126,3.134,3.134,0,0,1,3.144,3.126,3.134,3.134,0,0,1-3.142,3.126Zm0-21.879a3.134,3.134,0,0,1-3.144-3.126,3.134,3.134,0,0,1,3.144-3.125,3.134,3.134,0,0,1,3.144,3.125,3.134,3.134,0,0,1-3.142,3.126Zm0-21.879a3.134,3.134,0,0,1-3.144-3.125A3.134,3.134,0,0,1,894.426-522a3.134,3.134,0,0,1,3.144,3.125,3.134,3.134,0,0,1-3.142,3.126Zm0-21.879a3.134,3.134,0,0,1-3.144-3.125,3.134,3.134,0,0,1,3.144-3.126,3.134,3.134,0,0,1,3.144,3.126,3.134,3.134,0,0,1-3.142,3.126Zm0-21.879a3.134,3.134,0,0,1-3.144-3.125,3.134,3.134,0,0,1,3.144-3.125,3.134,3.134,0,0,1,3.144,3.126,3.134,3.134,0,0,1-3.142,3.125ZM873.783-450.108a3.134,3.134,0,0,1-3.144-3.126,3.134,3.134,0,0,1,3.144-3.125,3.134,3.134,0,0,1,3.144,3.125,3.134,3.134,0,0,1-3.142,3.126Zm0-21.879a3.134,3.134,0,0,1-3.144-3.125,3.134,3.134,0,0,1,3.144-3.125,3.134,3.134,0,0,1,3.144,3.125,3.134,3.134,0,0,1-3.142,3.126Zm0-21.879a3.134,3.134,0,0,1-3.144-3.125,3.134,3.134,0,0,1,3.144-3.126,3.134,3.134,0,0,1,3.144,3.126,3.134,3.134,0,0,1-3.142,3.126Zm0-21.879a3.134,3.134,0,0,1-3.144-3.125A3.134,3.134,0,0,1,873.783-522a3.134,3.134,0,0,1,3.144,3.125,3.134,3.134,0,0,1-3.142,3.126Zm0-21.879a3.134,3.134,0,0,1-3.144-3.125,3.134,3.134,0,0,1,3.144-3.126,3.134,3.134,0,0,1,3.144,3.126,3.134,3.134,0,0,1-3.142,3.126Zm0-21.879a3.134,3.134,0,0,1-3.144-3.125,3.134,3.134,0,0,1,3.144-3.126,3.134,3.134,0,0,1,3.144,3.126,3.134,3.134,0,0,1-3.142,3.126ZM853.144-450.108A3.134,3.134,0,0,1,850-453.233a3.134,3.134,0,0,1,3.144-3.126,3.134,3.134,0,0,1,3.144,3.126,3.134,3.134,0,0,1-3.144,3.126Zm0-21.879A3.134,3.134,0,0,1,850-475.112a3.134,3.134,0,0,1,3.144-3.125,3.134,3.134,0,0,1,3.144,3.125,3.134,3.134,0,0,1-3.144,3.126Zm0-21.879A3.134,3.134,0,0,1,850-496.991a3.134,3.134,0,0,1,3.144-3.125,3.134,3.134,0,0,1,3.144,3.125,3.134,3.134,0,0,1-3.144,3.126Zm0-21.879A3.134,3.134,0,0,1,850-518.87,3.134,3.134,0,0,1,853.144-522a3.134,3.134,0,0,1,3.144,3.125,3.134,3.134,0,0,1-3.144,3.126Zm0-21.879A3.134,3.134,0,0,1,850-540.749a3.134,3.134,0,0,1,3.144-3.125,3.134,3.134,0,0,1,3.144,3.125,3.134,3.134,0,0,1-3.144,3.125Zm0-21.879A3.134,3.134,0,0,1,850-562.628a3.134,3.134,0,0,1,3.144-3.125,3.134,3.134,0,0,1,3.144,3.125,3.134,3.134,0,0,1-3.144,3.125ZM957.256-318.4a3.134,3.134,0,0,1-3.144-3.125,3.134,3.134,0,0,1,3.144-3.126,3.134,3.134,0,0,1,3.144,3.126A3.134,3.134,0,0,1,957.256-318.4Zm0-21.879a3.134,3.134,0,0,1-3.144-3.125,3.134,3.134,0,0,1,3.144-3.125A3.134,3.134,0,0,1,960.4-343.4,3.134,3.134,0,0,1,957.256-340.279Zm0-21.879a3.134,3.134,0,0,1-3.144-3.125,3.134,3.134,0,0,1,3.144-3.125,3.134,3.134,0,0,1,3.144,3.125A3.134,3.134,0,0,1,957.256-362.158Zm0-21.879a3.134,3.134,0,0,1-3.144-3.126,3.134,3.134,0,0,1,3.144-3.125,3.134,3.134,0,0,1,3.144,3.125,3.134,3.134,0,0,1-3.144,3.126Zm0-21.879a3.134,3.134,0,0,1-3.144-3.125,3.134,3.134,0,0,1,3.144-3.125,3.134,3.134,0,0,1,3.144,3.125,3.134,3.134,0,0,1-3.144,3.126Zm0-21.879a3.134,3.134,0,0,1-3.144-3.126,3.134,3.134,0,0,1,3.144-3.125,3.134,3.134,0,0,1,3.144,3.125A3.134,3.134,0,0,1,957.256-427.794ZM936.615-318.4a3.134,3.134,0,0,1-3.144-3.125,3.134,3.134,0,0,1,3.144-3.126,3.134,3.134,0,0,1,3.144,3.126,3.134,3.134,0,0,1-3.144,3.125Zm0-21.879a3.134,3.134,0,0,1-3.144-3.125,3.134,3.134,0,0,1,3.144-3.125,3.134,3.134,0,0,1,3.144,3.125,3.134,3.134,0,0,1-3.144,3.125Zm0-21.879a3.134,3.134,0,0,1-3.144-3.125,3.134,3.134,0,0,1,3.144-3.125,3.134,3.134,0,0,1,3.144,3.125,3.134,3.134,0,0,1-3.144,3.125Zm0-21.879a3.134,3.134,0,0,1-3.144-3.126,3.134,3.134,0,0,1,3.144-3.125,3.134,3.134,0,0,1,3.144,3.125,3.134,3.134,0,0,1-3.144,3.126Zm0-21.879a3.134,3.134,0,0,1-3.144-3.125,3.134,3.134,0,0,1,3.144-3.125,3.134,3.134,0,0,1,3.144,3.125,3.134,3.134,0,0,1-3.144,3.126Zm0-21.879a3.134,3.134,0,0,1-3.144-3.126,3.134,3.134,0,0,1,3.144-3.125,3.134,3.134,0,0,1,3.144,3.125,3.134,3.134,0,0,1-3.144,3.125ZM915.971-318.4a3.134,3.134,0,0,1-3.144-3.125,3.134,3.134,0,0,1,3.144-3.126,3.134,3.134,0,0,1,3.144,3.126,3.134,3.134,0,0,1-3.144,3.125Zm0-21.879a3.134,3.134,0,0,1-3.144-3.125,3.134,3.134,0,0,1,3.144-3.125,3.134,3.134,0,0,1,3.144,3.125,3.134,3.134,0,0,1-3.144,3.125Zm0-21.879a3.134,3.134,0,0,1-3.144-3.125,3.134,3.134,0,0,1,3.144-3.125,3.134,3.134,0,0,1,3.144,3.125,3.134,3.134,0,0,1-3.144,3.125Zm0-21.879a3.134,3.134,0,0,1-3.144-3.126,3.134,3.134,0,0,1,3.144-3.125,3.134,3.134,0,0,1,3.144,3.125,3.134,3.134,0,0,1-3.144,3.126Zm0-21.879a3.134,3.134,0,0,1-3.144-3.125,3.134,3.134,0,0,1,3.144-3.125,3.134,3.134,0,0,1,3.144,3.125,3.134,3.134,0,0,1-3.144,3.126Zm0-21.879a3.134,3.134,0,0,1-3.144-3.126,3.134,3.134,0,0,1,3.144-3.125,3.134,3.134,0,0,1,3.144,3.125,3.134,3.134,0,0,1-3.144,3.125ZM894.429-318.4a3.134,3.134,0,0,1-3.144-3.125,3.134,3.134,0,0,1,3.144-3.126,3.134,3.134,0,0,1,3.144,3.126A3.134,3.134,0,0,1,894.429-318.4Zm0-21.879a3.134,3.134,0,0,1-3.144-3.125,3.134,3.134,0,0,1,3.144-3.125,3.134,3.134,0,0,1,3.144,3.125A3.134,3.134,0,0,1,894.429-340.279Zm0-21.879a3.134,3.134,0,0,1-3.144-3.125,3.134,3.134,0,0,1,3.144-3.125,3.134,3.134,0,0,1,3.144,3.125A3.134,3.134,0,0,1,894.429-362.158Zm0-21.879a3.134,3.134,0,0,1-3.144-3.126,3.134,3.134,0,0,1,3.144-3.125,3.134,3.134,0,0,1,3.144,3.125,3.134,3.134,0,0,1-3.144,3.126Zm0-21.879a3.134,3.134,0,0,1-3.144-3.125,3.134,3.134,0,0,1,3.144-3.125,3.134,3.134,0,0,1,3.144,3.125,3.134,3.134,0,0,1-3.144,3.126Zm0-21.879a3.134,3.134,0,0,1-3.144-3.126,3.134,3.134,0,0,1,3.144-3.125,3.134,3.134,0,0,1,3.144,3.125A3.134,3.134,0,0,1,894.429-427.794ZM873.786-318.4a3.134,3.134,0,0,1-3.144-3.125,3.134,3.134,0,0,1,3.144-3.126,3.134,3.134,0,0,1,3.144,3.126A3.134,3.134,0,0,1,873.786-318.4Zm0-21.879a3.134,3.134,0,0,1-3.144-3.125,3.134,3.134,0,0,1,3.144-3.125,3.134,3.134,0,0,1,3.144,3.125A3.134,3.134,0,0,1,873.786-340.279Zm0-21.879a3.134,3.134,0,0,1-3.144-3.125,3.134,3.134,0,0,1,3.144-3.125,3.134,3.134,0,0,1,3.144,3.125A3.134,3.134,0,0,1,873.786-362.158Zm0-21.879a3.134,3.134,0,0,1-3.144-3.126,3.134,3.134,0,0,1,3.144-3.125,3.134,3.134,0,0,1,3.144,3.125,3.134,3.134,0,0,1-3.144,3.126Zm0-21.879a3.134,3.134,0,0,1-3.144-3.125,3.134,3.134,0,0,1,3.144-3.125,3.134,3.134,0,0,1,3.144,3.125,3.134,3.134,0,0,1-3.144,3.126Zm0-21.879a3.134,3.134,0,0,1-3.144-3.126,3.134,3.134,0,0,1,3.144-3.125,3.134,3.134,0,0,1,3.144,3.125A3.134,3.134,0,0,1,873.786-427.794ZM853.144-318.4A3.134,3.134,0,0,1,850-321.525a3.134,3.134,0,0,1,3.144-3.126,3.134,3.134,0,0,1,3.144,3.126,3.134,3.134,0,0,1-3.144,3.125Zm0-21.879A3.134,3.134,0,0,1,850-343.4a3.134,3.134,0,0,1,3.144-3.125,3.134,3.134,0,0,1,3.144,3.125,3.134,3.134,0,0,1-3.144,3.125Zm0-21.879A3.134,3.134,0,0,1,850-365.283a3.134,3.134,0,0,1,3.144-3.125,3.134,3.134,0,0,1,3.144,3.125,3.134,3.134,0,0,1-3.144,3.125Zm0-21.879A3.134,3.134,0,0,1,850-387.162a3.134,3.134,0,0,1,3.144-3.125,3.134,3.134,0,0,1,3.144,3.125,3.134,3.134,0,0,1-3.144,3.126Zm0-21.879A3.134,3.134,0,0,1,850-409.041a3.134,3.134,0,0,1,3.144-3.125,3.134,3.134,0,0,1,3.144,3.125,3.134,3.134,0,0,1-3.144,3.126Zm0-21.879A3.134,3.134,0,0,1,850-430.92a3.134,3.134,0,0,1,3.144-3.125,3.134,3.134,0,0,1,3.144,3.125,3.134,3.134,0,0,1-3.144,3.125Z" transform="translate(-850 565.754)"/></clipPath></defs><g class="b" transform="translate(247.354) rotate(90)"><path class="a" d="M846.575-569.178H963.963v254.341H846.575Z" transform="translate(-850.069 565.685)"/></g></svg>