<svg xmlns="http://www.w3.org/2000/svg" width="68.671" height="67.672" viewBox="0 0 68.671 67.672"><defs><style>.a{fill:none;stroke:#fff;stroke-linecap:round;stroke-linejoin:round;stroke-width:1.5px;}</style></defs><g transform="translate(-965.38 -2004.371)"><path class="a" d="M228-15.132c4.478,5.64,10.045,8.2,14.381,13.138,5.633-4.86,17.368-10.527,19-19.822a4.884,4.884,0,0,0,.069-.819c.006-2.507.006-18.306.006-18.306-6.886.259-13.042-1.187-17.835-5.825a33.947,33.947,0,0,1-19.772,5.825v3.7" transform="translate(771.846 2051.886)"/><path class="a" d="M216.336-32.414c-.5-4.3.347-9.159,4.576-9.384h9.149c3.486.346,5.136,3.623,5.23,9.384" transform="translate(764.828 2056.448)"/><path class="a" d="M220.171-26.03c-16.267-3.095-9.006-11.442,1.308-10.725,3.118.217,12.436-.817,18.955,0,5.5.689,19.3,5.73.846,10.054" transform="translate(759.684 2060.788)"/><path class="a" d="M215.253-34.2c2.555,22.676,21.249,18.7,22.222,0" transform="translate(763.95 2063.432)"/><path class="a" d="M218.338-30.142c3.486,2.9,6.972,3.089,10.458,0" transform="translate(766.784 2067.155)"/><path class="a" d="M226.74-25.028c-11.344,1.75-16.827,9.535-18.3,21.45,15.761,4.409,31.941,3.7,48.368,0-1.37-12.776-7.191-20-17.648-21.45l-6.536,8.044Z" transform="translate(757.691 2071.852)"/><path class="a" d="M214.165-23.5v7.784" transform="translate(762.951 2073.26)"/><path class="a" d="M216.209-24.323v9.373" transform="translate(764.828 2072.5)"/><path class="a" d="M226.155-24.323v9.373" transform="translate(773.964 2072.5)"/><path class="a" d="M227.858-23.728v8.23" transform="translate(775.528 2073.046)"/><path class="a" d="M214.165-8.376v-8.965h26.27V-8.61" transform="translate(762.951 2078.912)"/><path class="a" d="M215.253-15.944h1.834" transform="translate(763.95 2080.196)"/><path class="a" d="M225.495-15.944h1.834" transform="translate(773.358 2080.196)"/></g></svg>