<svg xmlns="http://www.w3.org/2000/svg" width="72.252" height="69.073" viewBox="0 0 72.252 69.073"><defs><style>.a,.b{fill:none;stroke:#fff;stroke-linecap:round;stroke-miterlimit:1;stroke-width:1.5px;}.b{stroke-linejoin:round;}</style></defs><g transform="translate(-614.347 -1374.922)"><path class="a" d="M72.58-364.01a3.8,3.8,0,0,0-3.8-3.8H36.829a3.8,3.8,0,0,0-3.8,3.8v30.648a3.8,3.8,0,0,0,3.8,3.8h31.95a3.8,3.8,0,0,0,3.8-3.8Z" transform="translate(597.923 1758.259)"/><path class="a" d="M35.619-374.857v6.52" transform="translate(600.766 1750.529)"/><path class="a" d="M39-374.857v6.52" transform="translate(604.476 1750.529)"/><path class="a" d="M42.384-374.857v6.52" transform="translate(608.187 1750.529)"/><path class="a" d="M45.767-374.857v6.52" transform="translate(611.898 1750.529)"/><path class="a" d="M49.149-374.857v6.52" transform="translate(615.609 1750.529)"/><path class="a" d="M35.619-345.743v6.52" transform="translate(600.766 1782.468)"/><path class="a" d="M39-345.743v6.52" transform="translate(604.476 1782.468)"/><path class="a" d="M42.384-345.743v6.52" transform="translate(608.187 1782.468)"/><path class="a" d="M45.767-345.743v6.52" transform="translate(611.898 1782.468)"/><path class="a" d="M49.149-345.743v6.52" transform="translate(615.609 1782.468)"/><path class="a" d="M31.987-365.248H25.468" transform="translate(589.629 1761.07)"/><path class="a" d="M31.987-361.866H25.468" transform="translate(589.629 1764.78)"/><path class="a" d="M31.987-358.483H25.468" transform="translate(589.629 1768.491)"/><path class="a" d="M31.987-355.1H25.468" transform="translate(589.629 1772.202)"/><path class="a" d="M31.987-351.718H25.468" transform="translate(589.629 1775.913)"/><path class="a" d="M62.617-365.248H56.1" transform="translate(623.232 1761.07)"/><path class="a" d="M62.617-361.866H56.1" transform="translate(623.232 1764.78)"/><path class="a" d="M62.617-358.483H56.1" transform="translate(623.232 1768.491)"/><path class="a" d="M62.617-355.1H56.1" transform="translate(623.232 1772.202)"/><path class="a" d="M62.617-351.718H56.1" transform="translate(623.232 1775.913)"/><path class="b" d="M42.979-336.042c14.95-2.5,15.7-13.4,10.212-25.861C40.139-356.067,35.4-345.71,42.979-336.042Z" transform="translate(604.862 1764.74)"/><path class="b" d="M41.562-343.741l4.848-12.521" transform="translate(607.286 1770.928)"/></g></svg>