<svg xmlns="http://www.w3.org/2000/svg" width="80.38" height="77.556" viewBox="0 0 80.38 77.556"><defs><style>.a,.b{fill:none;stroke-linecap:round;stroke-linejoin:round;stroke-width:1.5px;}.a{stroke:#fff;}.b{stroke:rgba(255,255,255,0.43);}</style></defs><g transform="translate(-922.525 -1183.997)"><path class="a" d="M211.408-468.715l2.342,11.423,9.08-9.078Z" transform="translate(723.418 1664.318)"/><path class="a" d="M229.155-474.374l-6.59,9.619,12.839.224Z" transform="translate(733.666 1659.121)"/><path class="a" d="M245.854-468.715l-11.423,2.344,9.078,9.078Z" transform="translate(744.565 1664.318)"/><path class="a" d="M251.225-451.318l-9.6-6.621L241.36-445.1Z" transform="translate(750.93 1674.216)"/><path class="a" d="M245.838-435.018l-2.183-11.455-9.207,8.952Z" transform="translate(744.581 1684.748)"/><path class="a" d="M228.9-430.045l6.5-9.679-12.841-.109Z" transform="translate(733.666 1690.847)"/><path class="a" d="M211.44-434.995l11.361-2.63-9.307-8.848Z" transform="translate(723.448 1684.748)"/><path class="a" d="M205.387-451.574l9.7,6.475.073-12.841Z" transform="translate(717.888 1674.216)"/><path class="a" d="M222.916-457.978c-.315-2.732.221-5.827,2.91-5.969h5.821c2.218.219,3.267,2.3,3.327,5.969" transform="translate(733.914 1668.698)"/><path class="a" d="M225.357-453.916c-10.348-1.968-5.729-7.279.831-6.822,1.984.138,7.912-.52,12.058,0,3.5.439,12.57,3.645.831,6.4" transform="translate(730.643 1671.458)"/><path class="a" d="M222.227-459.111c1.625,14.425,13.518,11.9,14.136,0" transform="translate(733.356 1673.14)"/><path class="b" d="M224.189-456.533c2.218,1.847,4.436,1.966,6.653,0" transform="translate(735.158 1675.508)"/><path class="a" d="M229.535-453.28c-7.217,1.115-10.705,6.066-11.642,13.644,10.024,2.8,20.317,2.356,30.765,0-.871-8.127-4.574-12.724-11.225-13.644l-4.157,5.117Z" transform="translate(729.375 1678.496)"/><path class="a" d="M221.535-452.305v4.952" transform="translate(732.72 1679.391)"/><path class="a" d="M222.835-452.831v5.961" transform="translate(733.914 1678.908)"/><path class="a" d="M229.162-452.831v5.961" transform="translate(739.726 1678.908)"/><path class="a" d="M230.245-452.453v5.236" transform="translate(740.721 1679.255)"/><path class="a" d="M221.535-442.688v-5.7h16.71v5.554" transform="translate(732.72 1682.987)"/><path class="b" d="M222.227-447.5h1.166" transform="translate(733.356 1683.804)"/><path class="b" d="M228.742-447.5h1.166" transform="translate(739.34 1683.804)"/></g></svg>