<svg xmlns="http://www.w3.org/2000/svg" width="54.777" height="66.691" viewBox="0 0 54.777 66.691"><defs><style>.a{fill:none;stroke:#0d9a49;stroke-linecap:round;stroke-linejoin:round;stroke-width:1.5px;}</style></defs><g transform="translate(-1297.414 -1373.235)"><path class="a" d="M389.05-366.773c-.474-4.1.332-8.746,4.368-8.963h8.741c3.329.332,4.906,3.461,4.994,8.963" transform="translate(923.474 1749.721)"/><path class="a" d="M392.714-360.674c-15.538-2.956-8.6-10.93,1.249-10.245,2.978.207,11.878-.779,18.1,0,5.251.658,18.435,5.472.81,9.6" transform="translate(918.561 1753.867)"/><path class="a" d="M388.015-368.474c2.442,21.66,20.3,17.865,21.226,0" transform="translate(922.635 1756.391)"/><path class="a" d="M390.962-364.6c3.331,2.772,6.659,2.951,9.99,0" transform="translate(925.342 1759.948)"/><path class="a" d="M418.367-357.164a19.438,19.438,0,0,0-7.519-2.554l-6.243,7.684-5.617-7.684c-10.836,1.673-16.073,9.107-17.482,20.488a86.371,86.371,0,0,0,34.656,2.06" transform="translate(916.657 1764.434)"/><path class="a" d="M386.976-358.483v7.874" transform="translate(921.68 1765.568)"/><path class="a" d="M388.929-359.343v9.523" transform="translate(923.474 1764.779)"/><path class="a" d="M398.428-359.378v5.115" transform="translate(932.199 1764.746)"/><path class="a" d="M400.055-358.7v1.961" transform="translate(933.694 1765.365)"/><path class="a" d="M386.976-343.814v-8.562h18.381" transform="translate(921.68 1771.178)"/><path class="a" d="M388.015-351.042h1.753" transform="translate(922.635 1772.403)"/><path class="a" d="M405.1-358.514l3.242.81a1.965,1.965,0,0,0,1.069-.031l3.25-1.015,2.511,2.93a1.973,1.973,0,0,0,.789.556l2.607,1s.506,2.7.662,3.534a2.026,2.026,0,0,0,.152.472l1.548,3.317s-1.159,2.032-1.661,2.91a1.974,1.974,0,0,0-.257.856c-.063,1.005-.207,3.323-.207,3.323l-3.292,1.234a1.993,1.993,0,0,0-.823.585l-2.028,2.433-3.793-.631a1.982,1.982,0,0,0-.906.059l-2.625.81-2.613-2.394a1.94,1.94,0,0,0-.5-.334c-.833-.388-3.267-1.525-3.267-1.525s-.3-2.665-.42-3.776a1.95,1.95,0,0,0-.32-.877l-1.623-2.436,1.742-3.267a1.965,1.965,0,0,0,.2-.585c.165-.94.654-3.707.654-3.707s2.218-1.109,3.02-1.512a1.956,1.956,0,0,0,.514-.368C403.358-356.774,405.1-358.514,405.1-358.514Z" transform="translate(930.514 1765.323)"/><path class="a" d="M405.876-355.856a6.147,6.147,0,0,1,6.143,6.143,6.147,6.147,0,0,1-6.143,6.143,6.147,6.147,0,0,1-6.143-6.143A6.147,6.147,0,0,1,405.876-355.856Z" transform="translate(933.398 1767.981)"/><path class="a" d="M402.012-352.03l1.293-.474v7.661l2.25-.242v-9.406l-3.544,1.28Z" transform="translate(935.491 1769.235)"/><path class="a" d="M400.475-347.667l-4.251,8.979,4.015-.71,2.126,3.071,3.781-7.323h-1.182Z" transform="translate(930.175 1775.503)"/><path class="a" d="M404.475-343.876l3.779,7.323,1.89-3.071,3.544.238-3.307-8.033-4.251,3.779Z" transform="translate(937.754 1775.73)"/></g></svg>