<svg xmlns="http://www.w3.org/2000/svg" width="48.273" height="67.203" viewBox="0 0 48.273 67.203"><defs><style>.a{fill:none;stroke:#107938;stroke-linecap:round;stroke-linejoin:round;stroke-width:1.5px;}</style></defs><g transform="translate(-1349.44 -1756.346)"><path class="a" d="M408.625-142.9h34.522" transform="translate(941.565 1956.791)"/><path class="a" d="M417.723-140.3h4.455" transform="translate(948.058 1958.647)"/><path class="a" d="M419.023-173.7h1.671" transform="translate(948.985 1934.818)"/><path class="a" d="M443.147-162.747v-10.3a3,3,0,0,0-3-3H411.624a3,3,0,0,0-3,3v59.705a3,3,0,0,0,3,3h28.525a3,3,0,0,0,3-3v-13.253" transform="translate(941.565 1933.141)"/><path class="a" d="M421.1-155.228a12.742,12.742,0,0,1,2.531-5.543,12.783,12.783,0,0,1,10.052-4.875,12.813,12.813,0,0,1,12.807,12.806,12.814,12.814,0,0,1-12.807,12.807,12.82,12.82,0,0,1-12.451-9.8" transform="translate(950.47 1940.561)"/><path class="a" d="M420-163.048l1.894,5.965,5.345-1.51" transform="translate(949.681 1942.415)"/></g></svg>