<svg xmlns="http://www.w3.org/2000/svg" width="31.524" height="31.524" viewBox="0 0 31.524 31.524"><defs><style>.a{fill:#fff;opacity:0;}.b{fill:#1a6aa5;}</style></defs><path class="a" d="M37.524,22.641A15.762,15.762,0,1,1,21.762,6.879,15.762,15.762,0,0,1,37.524,22.641Zm0,0" transform="translate(-6 -6.879)"/><path class="b" d="M144.21,123.993v6.5h-3.767v-6.062c0-1.523-.543-2.563-1.908-2.563a2.062,2.062,0,0,0-1.932,1.379,2.551,2.551,0,0,0-.125.918v6.329h-3.769s.051-10.269,0-11.332h3.769v1.606c-.007.012-.018.025-.025.037h.025v-.037a3.741,3.741,0,0,1,3.4-1.873C142.352,118.894,144.21,120.514,144.21,123.993ZM128.769,113.7a1.963,1.963,0,1,0-.049,3.915h.023a1.964,1.964,0,1,0,.026-3.915Zm-1.908,16.794h3.766V119.16h-3.766Zm0,0" transform="translate(-119.031 -106.963)"/></svg>